<mxfile host="65bd71144e">
    <diagram name="Coredata" id="e56a1550-8fbb-45ad-956c-1786394a9013">
        <mxGraphModel dx="760" dy="686" grid="0" gridSize="10" guides="1" tooltips="1" connect="1" arrows="1" fold="1" page="1" pageScale="1" pageWidth="827" pageHeight="1169" background="#FFFFFF" math="0" shadow="0">
            <root>
                <mxCell id="0"/>
                <mxCell id="1" parent="0"/>
                <mxCell id="hAJHhIO74vFtWTL41Ozo-24" style="edgeStyle=orthogonalEdgeStyle;rounded=1;orthogonalLoop=1;jettySize=auto;html=1;entryX=0;entryY=0.5;entryDx=0;entryDy=0;strokeColor=#000000;endArrow=none;endFill=0;labelBackgroundColor=none;fontColor=#000000;" parent="1" source="hAJHhIO74vFtWTL41Ozo-11" target="hAJHhIO74vFtWTL41Ozo-17" edge="1">
                    <mxGeometry relative="1" as="geometry"/>
                </mxCell>
                <mxCell id="hAJHhIO74vFtWTL41Ozo-29" style="edgeStyle=orthogonalEdgeStyle;shape=connector;rounded=1;orthogonalLoop=1;jettySize=auto;html=1;entryX=0.5;entryY=0;entryDx=0;entryDy=0;labelBackgroundColor=none;strokeColor=#000000;fontFamily=Helvetica;fontSize=11;fontColor=#000000;endArrow=none;endFill=0;" parent="1" source="hAJHhIO74vFtWTL41Ozo-11" target="hAJHhIO74vFtWTL41Ozo-18" edge="1">
                    <mxGeometry relative="1" as="geometry"/>
                </mxCell>
                <mxCell id="hAJHhIO74vFtWTL41Ozo-11" value="Projects" style="rounded=1;arcSize=10;whiteSpace=wrap;html=1;align=center;glass=0;shadow=0;fillColor=#1ba1e2;strokeColor=#006EAF;fontColor=#FFFFFF;labelBackgroundColor=none;" parent="1" vertex="1">
                    <mxGeometry x="207" y="289" width="100" height="40" as="geometry"/>
                </mxCell>
                <mxCell id="hAJHhIO74vFtWTL41Ozo-12" value="Languages" style="rounded=1;arcSize=10;whiteSpace=wrap;html=1;align=center;fillColor=#1ba1e2;fillStyle=auto;fontColor=#FFFFFF;strokeColor=#006EAF;labelBackgroundColor=none;" parent="1" vertex="1">
                    <mxGeometry x="566" y="289" width="100" height="40" as="geometry"/>
                </mxCell>
                <mxCell id="hAJHhIO74vFtWTL41Ozo-13" value="Topics" style="rounded=1;arcSize=10;whiteSpace=wrap;html=1;align=center;fillColor=#1ba1e2;fillStyle=auto;fontColor=#FFFFFF;strokeColor=#006EAF;labelBackgroundColor=none;" parent="1" vertex="1">
                    <mxGeometry x="207" y="529" width="100" height="40" as="geometry"/>
                </mxCell>
                <mxCell id="hAJHhIO74vFtWTL41Ozo-25" style="edgeStyle=orthogonalEdgeStyle;rounded=1;orthogonalLoop=1;jettySize=auto;html=1;entryX=0;entryY=0.5;entryDx=0;entryDy=0;endArrow=none;endFill=0;labelBackgroundColor=none;fontColor=#000000;strokeColor=#000000;" parent="1" source="hAJHhIO74vFtWTL41Ozo-17" target="hAJHhIO74vFtWTL41Ozo-12" edge="1">
                    <mxGeometry relative="1" as="geometry"/>
                </mxCell>
                <mxCell id="hAJHhIO74vFtWTL41Ozo-17" value="Project-Languages" style="shape=associativeEntity;whiteSpace=wrap;html=1;align=center;rounded=1;fillColor=#1ba1e2;fontColor=#FFFFFF;strokeColor=#006EAF;labelBackgroundColor=none;" parent="1" vertex="1">
                    <mxGeometry x="386" y="289" width="100" height="40" as="geometry"/>
                </mxCell>
                <mxCell id="hAJHhIO74vFtWTL41Ozo-30" style="edgeStyle=orthogonalEdgeStyle;shape=connector;rounded=1;orthogonalLoop=1;jettySize=auto;html=1;entryX=0.5;entryY=0;entryDx=0;entryDy=0;labelBackgroundColor=none;strokeColor=#000000;fontFamily=Helvetica;fontSize=11;fontColor=#000000;endArrow=none;endFill=0;" parent="1" source="hAJHhIO74vFtWTL41Ozo-18" target="hAJHhIO74vFtWTL41Ozo-13" edge="1">
                    <mxGeometry relative="1" as="geometry"/>
                </mxCell>
                <mxCell id="hAJHhIO74vFtWTL41Ozo-18" value="Project-Topics" style="shape=associativeEntity;whiteSpace=wrap;html=1;align=center;rounded=1;fillColor=#1ba1e2;fontColor=#FFFFFF;strokeColor=#006EAF;labelBackgroundColor=none;" parent="1" vertex="1">
                    <mxGeometry x="207" y="409" width="100" height="40" as="geometry"/>
                </mxCell>
                <mxCell id="hAJHhIO74vFtWTL41Ozo-40" style="shape=connector;rounded=1;orthogonalLoop=1;jettySize=auto;html=1;labelBackgroundColor=none;strokeColor=#000000;fontFamily=Helvetica;fontSize=11;fontColor=#000000;endArrow=none;endFill=0;edgeStyle=orthogonalEdgeStyle;startArrow=oval;startFill=1;" parent="1" source="hAJHhIO74vFtWTL41Ozo-31" target="hAJHhIO74vFtWTL41Ozo-11" edge="1">
                    <mxGeometry relative="1" as="geometry"/>
                </mxCell>
                <mxCell id="hAJHhIO74vFtWTL41Ozo-31" value="project_id" style="ellipse;whiteSpace=wrap;html=1;align=center;fontFamily=Helvetica;fontSize=11;fillColor=none;strokeColor=none;fontStyle=4;horizontal=1;labelBackgroundColor=none;fontColor=#000000;" parent="1" vertex="1">
                    <mxGeometry x="107" y="159" width="60" height="20" as="geometry"/>
                </mxCell>
                <mxCell id="hAJHhIO74vFtWTL41Ozo-41" style="edgeStyle=orthogonalEdgeStyle;shape=connector;rounded=1;orthogonalLoop=1;jettySize=auto;html=1;labelBackgroundColor=none;strokeColor=#000000;fontFamily=Helvetica;fontSize=11;fontColor=#000000;endArrow=none;endFill=0;startArrow=oval;startFill=0;exitX=1;exitY=0.5;exitDx=0;exitDy=0;" parent="1" source="hAJHhIO74vFtWTL41Ozo-32" target="hAJHhIO74vFtWTL41Ozo-11" edge="1">
                    <mxGeometry relative="1" as="geometry">
                        <mxPoint x="167" y="189" as="sourcePoint"/>
                    </mxGeometry>
                </mxCell>
                <mxCell id="hAJHhIO74vFtWTL41Ozo-32" value="project_name" style="ellipse;whiteSpace=wrap;html=1;align=center;fontFamily=Helvetica;fontSize=11;fillColor=none;strokeColor=none;labelBackgroundColor=none;fontColor=#000000;" parent="1" vertex="1">
                    <mxGeometry x="87" y="179" width="80" height="20" as="geometry"/>
                </mxCell>
                <mxCell id="hAJHhIO74vFtWTL41Ozo-45" style="edgeStyle=orthogonalEdgeStyle;shape=connector;rounded=1;orthogonalLoop=1;jettySize=auto;html=1;labelBackgroundColor=none;strokeColor=#000000;fontFamily=Helvetica;fontSize=11;fontColor=#000000;startArrow=oval;startFill=0;endArrow=none;endFill=0;" parent="1" source="hAJHhIO74vFtWTL41Ozo-33" target="hAJHhIO74vFtWTL41Ozo-11" edge="1">
                    <mxGeometry relative="1" as="geometry"/>
                </mxCell>
                <mxCell id="hAJHhIO74vFtWTL41Ozo-33" value="project_title" style="ellipse;whiteSpace=wrap;html=1;align=center;fontFamily=Helvetica;fontSize=11;fillColor=none;strokeColor=none;labelBackgroundColor=none;fontColor=#000000;" parent="1" vertex="1">
                    <mxGeometry x="97" y="199" width="70" height="20" as="geometry"/>
                </mxCell>
                <mxCell id="hAJHhIO74vFtWTL41Ozo-43" style="edgeStyle=orthogonalEdgeStyle;shape=connector;rounded=1;orthogonalLoop=1;jettySize=auto;html=1;labelBackgroundColor=none;strokeColor=#000000;fontFamily=Helvetica;fontSize=11;fontColor=#000000;startArrow=oval;startFill=0;endArrow=none;endFill=0;" parent="1" source="hAJHhIO74vFtWTL41Ozo-34" target="hAJHhIO74vFtWTL41Ozo-11" edge="1">
                    <mxGeometry relative="1" as="geometry"/>
                </mxCell>
                <mxCell id="hAJHhIO74vFtWTL41Ozo-34" value="project_description" style="ellipse;whiteSpace=wrap;html=1;align=center;fontFamily=Helvetica;fontSize=11;fillColor=none;strokeColor=none;labelBackgroundColor=none;fontColor=#000000;" parent="1" vertex="1">
                    <mxGeometry x="57" y="219" width="110" height="20" as="geometry"/>
                </mxCell>
                <mxCell id="hAJHhIO74vFtWTL41Ozo-44" style="edgeStyle=orthogonalEdgeStyle;shape=connector;rounded=1;orthogonalLoop=1;jettySize=auto;html=1;labelBackgroundColor=none;strokeColor=#000000;fontFamily=Helvetica;fontSize=11;fontColor=#000000;startArrow=oval;startFill=0;endArrow=none;endFill=0;" parent="1" source="hAJHhIO74vFtWTL41Ozo-35" target="hAJHhIO74vFtWTL41Ozo-11" edge="1">
                    <mxGeometry relative="1" as="geometry"/>
                </mxCell>
                <mxCell id="hAJHhIO74vFtWTL41Ozo-35" value="project_repository" style="ellipse;whiteSpace=wrap;html=1;align=center;fontFamily=Helvetica;fontSize=11;fillColor=none;strokeColor=none;labelBackgroundColor=none;fontColor=#000000;" parent="1" vertex="1">
                    <mxGeometry x="67" y="239" width="100" height="20" as="geometry"/>
                </mxCell>
                <mxCell id="hAJHhIO74vFtWTL41Ozo-42" style="edgeStyle=orthogonalEdgeStyle;shape=connector;rounded=1;orthogonalLoop=1;jettySize=auto;html=1;labelBackgroundColor=none;strokeColor=#000000;fontFamily=Helvetica;fontSize=11;fontColor=#000000;startArrow=oval;startFill=0;endArrow=none;endFill=0;" parent="1" source="hAJHhIO74vFtWTL41Ozo-36" target="hAJHhIO74vFtWTL41Ozo-11" edge="1">
                    <mxGeometry relative="1" as="geometry"/>
                </mxCell>
                <mxCell id="hAJHhIO74vFtWTL41Ozo-36" value="project_site" style="ellipse;whiteSpace=wrap;html=1;align=center;fontFamily=Helvetica;fontSize=11;fillColor=none;strokeColor=none;labelBackgroundColor=none;fontColor=#000000;" parent="1" vertex="1">
                    <mxGeometry x="97" y="259" width="70" height="20" as="geometry"/>
                </mxCell>
                <mxCell id="hAJHhIO74vFtWTL41Ozo-48" style="edgeStyle=orthogonalEdgeStyle;shape=connector;rounded=1;orthogonalLoop=1;jettySize=auto;html=1;labelBackgroundColor=none;strokeColor=#000000;fontFamily=Helvetica;fontSize=11;fontColor=#000000;startArrow=oval;startFill=0;endArrow=none;endFill=0;" parent="1" source="hAJHhIO74vFtWTL41Ozo-37" target="hAJHhIO74vFtWTL41Ozo-11" edge="1">
                    <mxGeometry relative="1" as="geometry"/>
                </mxCell>
                <mxCell id="hAJHhIO74vFtWTL41Ozo-37" value="project_display" style="ellipse;whiteSpace=wrap;html=1;align=center;fontFamily=Helvetica;fontSize=11;fillColor=none;strokeColor=none;labelBackgroundColor=none;fontColor=#000000;" parent="1" vertex="1">
                    <mxGeometry x="77" y="279" width="90" height="20" as="geometry"/>
                </mxCell>
                <mxCell id="hAJHhIO74vFtWTL41Ozo-47" style="edgeStyle=orthogonalEdgeStyle;shape=connector;rounded=1;orthogonalLoop=1;jettySize=auto;html=1;labelBackgroundColor=none;strokeColor=#000000;fontFamily=Helvetica;fontSize=11;fontColor=#000000;startArrow=oval;startFill=0;endArrow=none;endFill=0;" parent="1" source="hAJHhIO74vFtWTL41Ozo-38" target="hAJHhIO74vFtWTL41Ozo-11" edge="1">
                    <mxGeometry relative="1" as="geometry"/>
                </mxCell>
                <mxCell id="hAJHhIO74vFtWTL41Ozo-38" value="project_cover" style="ellipse;whiteSpace=wrap;html=1;align=center;fontFamily=Helvetica;fontSize=11;fillColor=none;strokeColor=none;labelBackgroundColor=none;fontColor=#000000;" parent="1" vertex="1">
                    <mxGeometry x="87" y="299" width="80" height="20" as="geometry"/>
                </mxCell>
                <mxCell id="hAJHhIO74vFtWTL41Ozo-46" style="edgeStyle=orthogonalEdgeStyle;shape=connector;rounded=1;orthogonalLoop=1;jettySize=auto;html=1;labelBackgroundColor=none;strokeColor=#000000;fontFamily=Helvetica;fontSize=11;fontColor=#000000;startArrow=oval;startFill=0;endArrow=none;endFill=0;" parent="1" source="hAJHhIO74vFtWTL41Ozo-39" target="hAJHhIO74vFtWTL41Ozo-11" edge="1">
                    <mxGeometry relative="1" as="geometry"/>
                </mxCell>
                <mxCell id="hAJHhIO74vFtWTL41Ozo-39" value="project_image" style="ellipse;whiteSpace=wrap;html=1;align=center;fontFamily=Helvetica;fontSize=11;fillColor=none;strokeColor=none;labelBackgroundColor=none;fontColor=#000000;" parent="1" vertex="1">
                    <mxGeometry x="77" y="319" width="90" height="20" as="geometry"/>
                </mxCell>
                <mxCell id="hAJHhIO74vFtWTL41Ozo-50" style="edgeStyle=orthogonalEdgeStyle;shape=connector;rounded=1;orthogonalLoop=1;jettySize=auto;html=1;labelBackgroundColor=none;strokeColor=#000000;fontFamily=Helvetica;fontSize=11;fontColor=#000000;startArrow=oval;startFill=1;endArrow=none;endFill=0;" parent="1" source="hAJHhIO74vFtWTL41Ozo-49" target="hAJHhIO74vFtWTL41Ozo-12" edge="1">
                    <mxGeometry relative="1" as="geometry"/>
                </mxCell>
                <mxCell id="hAJHhIO74vFtWTL41Ozo-49" value="language_id" style="ellipse;whiteSpace=wrap;html=1;align=center;fontFamily=Helvetica;fontSize=11;fillColor=none;strokeColor=none;fontStyle=4;labelBackgroundColor=none;fontColor=#000000;" parent="1" vertex="1">
                    <mxGeometry x="697" y="289" width="80" height="20" as="geometry"/>
                </mxCell>
                <mxCell id="hAJHhIO74vFtWTL41Ozo-52" style="edgeStyle=orthogonalEdgeStyle;shape=connector;rounded=1;orthogonalLoop=1;jettySize=auto;html=1;labelBackgroundColor=none;strokeColor=#000000;fontFamily=Helvetica;fontSize=11;fontColor=#000000;startArrow=oval;startFill=0;endArrow=none;endFill=0;" parent="1" source="hAJHhIO74vFtWTL41Ozo-51" target="hAJHhIO74vFtWTL41Ozo-12" edge="1">
                    <mxGeometry relative="1" as="geometry"/>
                </mxCell>
                <mxCell id="hAJHhIO74vFtWTL41Ozo-51" value="language_name" style="ellipse;whiteSpace=wrap;html=1;align=center;fontFamily=Helvetica;fontSize=11;fillColor=none;strokeColor=none;fontColor=#000000;" parent="1" vertex="1">
                    <mxGeometry x="697" y="309" width="100" height="20" as="geometry"/>
                </mxCell>
                <mxCell id="hAJHhIO74vFtWTL41Ozo-55" style="edgeStyle=orthogonalEdgeStyle;shape=connector;rounded=1;orthogonalLoop=1;jettySize=auto;html=1;labelBackgroundColor=none;strokeColor=#000000;fontFamily=Helvetica;fontSize=11;fontColor=#000000;startArrow=oval;startFill=1;endArrow=none;endFill=0;" parent="1" source="hAJHhIO74vFtWTL41Ozo-53" target="hAJHhIO74vFtWTL41Ozo-13" edge="1">
                    <mxGeometry relative="1" as="geometry"/>
                </mxCell>
                <mxCell id="hAJHhIO74vFtWTL41Ozo-53" value="topic_id" style="ellipse;whiteSpace=wrap;html=1;align=center;fontFamily=Helvetica;fontSize=11;fillColor=none;strokeColor=none;fontStyle=4;labelBackgroundColor=none;fontColor=#000000;" parent="1" vertex="1">
                    <mxGeometry x="127" y="529" width="50" height="20" as="geometry"/>
                </mxCell>
                <mxCell id="hAJHhIO74vFtWTL41Ozo-56" style="edgeStyle=orthogonalEdgeStyle;shape=connector;rounded=1;orthogonalLoop=1;jettySize=auto;html=1;labelBackgroundColor=none;strokeColor=#000000;fontFamily=Helvetica;fontSize=11;fontColor=#000000;startArrow=oval;startFill=0;endArrow=none;endFill=0;" parent="1" source="hAJHhIO74vFtWTL41Ozo-54" target="hAJHhIO74vFtWTL41Ozo-13" edge="1">
                    <mxGeometry relative="1" as="geometry"/>
                </mxCell>
                <mxCell id="hAJHhIO74vFtWTL41Ozo-54" value="topic_name" style="ellipse;whiteSpace=wrap;html=1;align=center;fontFamily=Helvetica;fontSize=11;fillColor=none;strokeColor=none;labelBackgroundColor=none;fontColor=#000000;" parent="1" vertex="1">
                    <mxGeometry x="107" y="549" width="70" height="20" as="geometry"/>
                </mxCell>
                <mxCell id="hAJHhIO74vFtWTL41Ozo-61" style="edgeStyle=orthogonalEdgeStyle;shape=connector;rounded=1;orthogonalLoop=1;jettySize=auto;html=1;labelBackgroundColor=none;strokeColor=default;fontFamily=Helvetica;fontSize=11;fontColor=#000000;startArrow=oval;startFill=0;endArrow=none;endFill=0;" parent="1" source="hAJHhIO74vFtWTL41Ozo-58" target="hAJHhIO74vFtWTL41Ozo-18" edge="1">
                    <mxGeometry relative="1" as="geometry"/>
                </mxCell>
                <mxCell id="hAJHhIO74vFtWTL41Ozo-64" value="" style="edgeStyle=orthogonalEdgeStyle;shape=connector;rounded=1;orthogonalLoop=1;jettySize=auto;html=1;labelBackgroundColor=none;strokeColor=#000000;fontFamily=Helvetica;fontSize=11;fontColor=#000000;startArrow=oval;startFill=1;endArrow=none;endFill=0;" parent="1" source="hAJHhIO74vFtWTL41Ozo-58" target="hAJHhIO74vFtWTL41Ozo-18" edge="1">
                    <mxGeometry relative="1" as="geometry"/>
                </mxCell>
                <mxCell id="hAJHhIO74vFtWTL41Ozo-58" value="project_id" style="ellipse;whiteSpace=wrap;html=1;align=center;fontFamily=Helvetica;fontSize=11;fillColor=none;strokeColor=none;fontStyle=4;labelBackgroundColor=none;fontColor=#000000;" parent="1" vertex="1">
                    <mxGeometry x="112" y="414" width="65" height="15" as="geometry"/>
                </mxCell>
                <mxCell id="hAJHhIO74vFtWTL41Ozo-62" style="edgeStyle=orthogonalEdgeStyle;shape=connector;rounded=1;orthogonalLoop=1;jettySize=auto;html=1;labelBackgroundColor=none;strokeColor=#000000;fontFamily=Helvetica;fontSize=11;fontColor=#000000;startArrow=oval;startFill=1;endArrow=none;endFill=0;" parent="1" source="hAJHhIO74vFtWTL41Ozo-59" target="hAJHhIO74vFtWTL41Ozo-18" edge="1">
                    <mxGeometry relative="1" as="geometry"/>
                </mxCell>
                <mxCell id="hAJHhIO74vFtWTL41Ozo-59" value="topic_id" style="ellipse;whiteSpace=wrap;html=1;align=center;fontFamily=Helvetica;fontSize=11;fillColor=none;strokeColor=none;fontStyle=4;labelBackgroundColor=none;fontColor=#000000;" parent="1" vertex="1">
                    <mxGeometry x="122" y="429" width="55" height="20" as="geometry"/>
                </mxCell>
                <mxCell id="hAJHhIO74vFtWTL41Ozo-66" value="project_id" style="ellipse;whiteSpace=wrap;html=1;align=center;fontFamily=Helvetica;fontSize=11;fillColor=none;strokeColor=none;fontStyle=4;labelBackgroundColor=none;fontColor=#000000;" parent="1" vertex="1">
                    <mxGeometry x="112" y="414" width="65" height="15" as="geometry"/>
                </mxCell>
                <mxCell id="hAJHhIO74vFtWTL41Ozo-67" value="topic_id" style="ellipse;whiteSpace=wrap;html=1;align=center;fontFamily=Helvetica;fontSize=11;fillColor=none;strokeColor=none;fontStyle=4;labelBackgroundColor=none;fontColor=#000000;" parent="1" vertex="1">
                    <mxGeometry x="122" y="429" width="55" height="20" as="geometry"/>
                </mxCell>
                <mxCell id="hAJHhIO74vFtWTL41Ozo-75" style="edgeStyle=orthogonalEdgeStyle;shape=connector;rounded=1;orthogonalLoop=1;jettySize=auto;html=1;labelBackgroundColor=none;strokeColor=#000000;fontFamily=Helvetica;fontSize=11;fontColor=#000000;startArrow=oval;startFill=1;endArrow=none;endFill=0;exitX=1;exitY=0.5;exitDx=0;exitDy=0;" parent="1" source="hAJHhIO74vFtWTL41Ozo-69" target="hAJHhIO74vFtWTL41Ozo-17" edge="1">
                    <mxGeometry relative="1" as="geometry">
                        <mxPoint x="415" y="299" as="targetPoint"/>
                    </mxGeometry>
                </mxCell>
                <mxCell id="hAJHhIO74vFtWTL41Ozo-69" value="project_id" style="ellipse;whiteSpace=wrap;html=1;align=center;fontFamily=Helvetica;fontSize=11;fillColor=none;strokeColor=none;fontStyle=4;labelBackgroundColor=none;fontColor=#000000;" parent="1" vertex="1">
                    <mxGeometry x="342" y="219" width="65" height="15" as="geometry"/>
                </mxCell>
                <mxCell id="hAJHhIO74vFtWTL41Ozo-76" style="edgeStyle=orthogonalEdgeStyle;shape=connector;rounded=1;orthogonalLoop=1;jettySize=auto;html=1;labelBackgroundColor=none;strokeColor=#000000;fontFamily=Helvetica;fontSize=11;fontColor=#000000;startArrow=oval;startFill=1;endArrow=none;endFill=0;exitX=1;exitY=0.5;exitDx=0;exitDy=0;" parent="1" source="hAJHhIO74vFtWTL41Ozo-70" target="hAJHhIO74vFtWTL41Ozo-17" edge="1">
                    <mxGeometry relative="1" as="geometry"/>
                </mxCell>
                <mxCell id="hAJHhIO74vFtWTL41Ozo-70" value="language_id" style="ellipse;whiteSpace=wrap;html=1;align=center;fontFamily=Helvetica;fontSize=11;fillColor=none;strokeColor=none;fontStyle=4;labelBackgroundColor=none;fontColor=#000000;" parent="1" vertex="1">
                    <mxGeometry x="337" y="234" width="70" height="20" as="geometry"/>
                </mxCell>
                <mxCell id="4" value="&lt;font&gt;(0,n)&lt;/font&gt;" style="text;html=1;strokeColor=none;fillColor=none;align=center;verticalAlign=middle;whiteSpace=wrap;rounded=0;fontColor=#000000;labelBackgroundColor=none;" parent="1" vertex="1">
                    <mxGeometry x="307" y="293" width="30" height="15" as="geometry"/>
                </mxCell>
                <mxCell id="5" value="&lt;font&gt;(0,n)&lt;/font&gt;" style="text;html=1;strokeColor=none;fillColor=none;align=center;verticalAlign=middle;whiteSpace=wrap;rounded=0;fontColor=#000000;labelBackgroundColor=none;" parent="1" vertex="1">
                    <mxGeometry x="536" y="291.5" width="30" height="15" as="geometry"/>
                </mxCell>
                <mxCell id="6" value="&lt;font&gt;(0,n)&lt;/font&gt;" style="text;html=1;strokeColor=none;fillColor=none;align=center;verticalAlign=middle;whiteSpace=wrap;rounded=0;fontColor=#000000;labelBackgroundColor=none;" parent="1" vertex="1">
                    <mxGeometry x="227" y="330" width="30" height="15" as="geometry"/>
                </mxCell>
                <mxCell id="7" value="&lt;font&gt;(0,n)&lt;/font&gt;" style="text;html=1;strokeColor=none;fillColor=none;align=center;verticalAlign=middle;whiteSpace=wrap;rounded=0;fontColor=#000000;labelBackgroundColor=none;" parent="1" vertex="1">
                    <mxGeometry x="227" y="512" width="30" height="15" as="geometry"/>
                </mxCell>
                <mxCell id="8" value="&lt;font style=&quot;font-size: 24px;&quot;&gt;Entity Relationship Diagram&lt;/font&gt;" style="text;html=1;strokeColor=none;fillColor=none;align=center;verticalAlign=middle;whiteSpace=wrap;rounded=0;fontFamily=Helvetica;fontSize=12;fontColor=#000000;startSize=30;" vertex="1" parent="1">
                    <mxGeometry y="50" width="820" height="30" as="geometry"/>
                </mxCell>
            </root>
        </mxGraphModel>
    </diagram>
</mxfile>